# xmcd
#
# Track frame offsets:
#	150
#	21048
#	46030
#	65890
#	88343
#	106060
#	124425
#	137485
#	152683
#	172428
#	193570
#	216190
#	231370
#
# Disc length: 3203 seconds
#
# Revision: 2
# Processed by: cddbd v1.5.2PL0 Copyright (c) Steve Scherf et al.
# Submitted via: dBpowerAMP V4.0
#
DISCID=bd0c810d
DTITLE=Aaron Neville - Grand Tour
DYEAR=1993
DGENRE=Country
TTITLE0=Don't Take Away My Heaven
TTITLE1=I Owe You One
TTITLE2=Don't Fall Apart On Me Tonight
TTITLE3=My Brother, My Brother
TTITLE4=Betcha by Goolie, Wow
TTITLE5=Song of Bernadette
TTITLE6=You Can Never Tell
TTITLE7=The Bells
TTITLE8=These Foolish Things
TTITLE9=The Roadie Song
TTITLE10=Ain't No Way
TTITLE11=The Grande Tour
TTITLE12=The Lord's Prayer
EXTD=Aaron Neville Don't take Away My Heaven LaRita Person
EXTT0=
EXTT1=
EXTT2=
EXTT3=
EXTT4=
EXTT5=
EXTT6=
EXTT7=
EXTT8=
EXTT9=
EXTT10=
EXTT11=
EXTT12=
PLAYORDER=
